<?xml version="1.0" standalone="no"?>
<!DOCTYPE svg PUBLIC "-//W3C//DTD SVG 20010904//EN"
 "http://www.w3.org/TR/2001/REC-SVG-20010904/DTD/svg10.dtd">
<svg version="1.0" xmlns="http://www.w3.org/2000/svg"
 width="1036.000000pt" height="1036.000000pt" viewBox="0 0 1036.000000 1036.000000"
 preserveAspectRatio="xMidYMid meet">
<metadata>
Created by potrace 1.11, written by Peter Selinger 2001-2013
</metadata>
<g transform="translate(0.000000,1036.000000) scale(0.100000,-0.100000)"
fill="#000000" stroke="none">
<path d="M6148 10345 c-2 -3 -42 -8 -89 -11 -46 -3 -102 -8 -124 -10 -22 -2
-80 -6 -130 -10 -49 -3 -94 -9 -99 -14 -5 -5 -19 -5 -31 0 -13 5 -26 6 -29 3
-3 -4 -25 -8 -48 -9 -24 -2 -61 -6 -83 -8 -50 -5 -182 -16 -255 -22 -30 -2
-75 -6 -100 -9 -75 -8 -172 -16 -220 -18 -46 -2 -109 -36 -111 -60 -4 -36 3
-74 19 -104 7 -13 9 -23 5 -23 -4 0 -2 -5 5 -12 7 -7 12 -22 12 -35 0 -13 5
-23 10 -23 6 0 10 -11 10 -25 0 -14 4 -25 9 -25 5 0 12 -12 16 -27 3 -15 17
-50 29 -78 13 -27 29 -66 36 -85 7 -19 21 -53 31 -76 11 -22 19 -45 19 -50 0
-5 9 -27 20 -48 10 -22 17 -43 14 -47 -3 -5 0 -9 5 -9 6 0 11 -7 11 -16 0 -9
6 -28 14 -42 13 -25 27 -60 28 -72 0 -3 9 -22 19 -42 10 -21 19 -44 19 -53 0
-8 5 -15 10 -15 6 0 10 -6 9 -12 -2 -21 13 -58 24 -58 6 0 7 -3 4 -6 -3 -4 -2
-15 4 -26 6 -11 12 -29 14 -40 3 -12 13 -39 24 -61 11 -22 18 -44 15 -49 -3
-4 0 -8 6 -8 6 0 8 -4 5 -10 -3 -5 -1 -10 5 -10 7 0 10 -6 7 -12 -2 -7 4 -25
14 -39 10 -14 16 -29 13 -32 -3 -3 1 -16 10 -29 9 -12 16 -30 16 -39 0 -9 7
-22 15 -29 9 -7 14 -19 11 -26 -3 -8 0 -19 7 -26 7 -8 13 -20 15 -28 1 -8 7
-24 11 -35 17 -38 24 -60 22 -69 -1 -5 4 -16 12 -25 7 -9 19 -34 26 -56 7 -22
22 -59 32 -81 11 -23 22 -51 24 -63 2 -12 14 -36 27 -54 13 -17 22 -34 21 -37
-4 -10 10 -55 24 -77 8 -12 15 -26 15 -30 1 -15 9 -38 28 -78 18 -38 25 -57
29 -80 2 -5 11 -25 23 -42 11 -18 17 -33 13 -33 -3 0 0 -10 7 -22 7 -13 11
-27 10 -32 -2 -5 2 -12 7 -16 6 -3 12 -15 14 -25 2 -11 12 -38 21 -59 10 -22
20 -48 22 -59 2 -10 7 -24 12 -31 5 -6 15 -29 22 -51 7 -22 24 -60 37 -84 12
-24 23 -51 23 -59 0 -8 9 -30 21 -48 11 -19 17 -34 14 -34 -4 0 0 -12 10 -26
9 -14 14 -28 11 -32 -3 -3 0 -12 8 -21 7 -9 19 -34 26 -56 7 -22 18 -49 23
-60 6 -11 12 -22 12 -25 3 -17 20 -62 41 -107 13 -28 24 -56 24 -62 0 -5 7
-22 14 -38 13 -24 26 -57 31 -73 0 -3 9 -20 18 -37 10 -18 15 -33 11 -33 -3 0
1 -11 10 -25 9 -14 14 -25 11 -25 -3 0 0 -10 7 -22 7 -13 13 -25 13 -28 1 -9
44 -115 80 -200 20 -47 38 -89 39 -95 7 -23 19 -52 36 -85 10 -20 20 -47 22
-62 2 -14 9 -32 16 -41 7 -8 19 -39 28 -68 9 -30 20 -56 25 -59 5 -3 10 -15
12 -25 2 -11 9 -33 15 -48 7 -16 12 -33 12 -38 0 -5 4 -9 9 -9 5 0 12 -15 15
-33 3 -18 15 -49 26 -70 11 -20 20 -42 20 -47 0 -6 9 -30 20 -52 11 -23 20
-50 20 -60 0 -10 5 -18 11 -18 5 0 7 -4 4 -10 -3 -5 -1 -10 4 -10 6 0 10 -3
10 -7 -1 -5 0 -11 1 -15 1 -5 4 -12 5 -18 1 -5 4 -12 5 -15 1 -3 3 -8 4 -12 1
-5 8 -19 16 -33 8 -14 15 -29 15 -35 2 -14 14 -45 31 -78 7 -16 14 -33 14 -38
0 -4 14 -38 30 -74 17 -36 30 -72 30 -80 0 -7 9 -29 20 -47 11 -19 21 -43 23
-53 2 -11 11 -36 20 -55 15 -34 29 -70 31 -80 1 -3 5 -11 9 -18 5 -6 5 -12 2
-12 -4 0 1 -7 9 -16 9 -8 16 -24 16 -35 0 -10 5 -19 11 -19 6 0 9 -6 6 -12 -2
-7 4 -29 13 -48 17 -33 32 -72 30 -78 0 -1 7 -17 17 -35 9 -17 18 -37 19 -43
1 -6 14 -30 28 -52 19 -31 33 -42 51 -42 37 0 50 8 185 116 52 41 110 88 129
102 34 27 41 33 127 107 25 22 55 45 66 51 18 10 57 43 168 142 26 23 51 42
56 42 5 0 27 16 49 36 22 20 56 48 75 62 19 15 49 41 66 59 17 18 34 29 38 26
3 -4 6 -1 6 5 0 7 7 12 15 12 7 0 18 6 22 14 4 8 28 30 53 50 114 92 125 111
108 173 -6 21 -10 39 -9 40 0 2 -9 24 -20 50 -39 91 -42 98 -40 106 1 5 -5 20
-14 35 -18 33 -39 83 -40 98 0 6 -6 18 -13 27 -8 9 -15 22 -17 29 -2 7 -6 22
-9 33 -4 11 -7 24 -6 28 0 4 -6 15 -15 23 -8 9 -12 20 -9 26 4 6 2 13 -4 17
-7 4 -13 16 -15 26 -2 11 -9 31 -17 45 -8 14 -15 30 -15 35 -2 14 -14 46 -31
78 -8 15 -13 31 -10 36 3 4 -4 18 -15 30 -11 12 -18 25 -15 29 3 5 -8 34 -24
66 -16 32 -29 61 -28 64 1 4 -7 25 -17 47 -10 22 -19 45 -20 50 0 6 -4 16 -8
23 -5 6 -6 16 -3 21 3 4 -3 16 -14 26 -11 10 -20 27 -20 38 0 10 -11 41 -25
69 -14 27 -25 54 -25 59 0 6 -12 36 -26 67 -33 73 -38 85 -65 157 -12 33 -27
74 -34 90 -7 17 -18 44 -25 60 -7 17 -19 42 -26 56 -7 14 -11 29 -8 32 4 3 -1
13 -10 22 -9 9 -16 23 -16 31 0 8 -4 22 -9 32 -30 61 -96 231 -96 248 0 6 -5
18 -12 25 -14 18 -44 89 -37 89 3 0 -4 16 -16 35 -12 19 -19 35 -16 35 4 0 -1
11 -10 25 -9 14 -13 25 -9 25 3 0 -2 15 -13 33 -12 17 -21 37 -23 42 -4 20
-11 41 -24 70 -7 17 -34 84 -60 150 -25 66 -53 132 -61 148 -8 15 -12 27 -8
27 3 0 0 7 -7 16 -8 9 -14 22 -14 28 -1 6 -7 25 -14 41 -7 17 -18 41 -23 55
-6 14 -16 39 -23 55 -15 35 -27 66 -31 80 -1 6 -12 33 -25 60 -13 28 -24 56
-25 63 -1 7 -10 24 -19 38 -9 13 -17 38 -18 54 -1 17 -5 30 -8 30 -7 0 -33 59
-49 113 -6 20 -16 37 -21 37 -5 0 -9 10 -9 22 0 12 -8 40 -19 62 -22 49 -33
76 -37 94 -1 7 -10 24 -19 38 -9 14 -14 32 -11 40 3 8 1 14 -3 14 -9 0 -30 48
-38 84 -2 11 -8 25 -14 32 -5 6 -12 22 -14 35 -3 12 -8 25 -12 28 -5 3 -9 13
-11 21 -3 15 -6 24 -33 85 -7 17 -11 34 -10 39 1 5 -3 12 -9 16 -7 4 -13 19
-13 34 -1 14 -8 28 -15 31 -7 3 -10 9 -7 15 3 6 -3 24 -15 40 -12 17 -19 30
-15 30 3 0 -1 14 -10 30 -9 17 -13 30 -10 30 3 0 -2 12 -12 27 -10 15 -18 31
-18 37 -2 20 -39 106 -46 106 -3 0 -6 6 -7 13 -5 39 -10 54 -22 77 -14 25 -16
30 -18 62 -3 23 -43 65 -76 78 -27 10 -158 14 -168 5z"/>
<path d="M5267 8503 c-3 -2 -40 -6 -83 -9 -44 -2 -104 -7 -134 -10 -77 -8
-162 -14 -255 -18 -44 -3 -113 -7 -153 -11 -41 -4 -104 -8 -140 -10 -37 -2
-67 -4 -67 -5 0 -2 -69 -7 -200 -14 -60 -3 -130 -8 -155 -11 -25 -3 -88 -7
-140 -10 -52 -3 -120 -7 -150 -10 -30 -2 -100 -7 -155 -10 -55 -3 -120 -8
-145 -10 -25 -2 -85 -7 -135 -10 -99 -5 -199 -13 -260 -20 -22 -2 -83 -7 -136
-10 -119 -6 -216 -13 -292 -21 -32 -3 -95 -7 -140 -9 -45 -2 -109 -7 -142 -10
-33 -3 -93 -7 -134 -10 -40 -2 -76 -6 -78 -9 -3 -3 -15 -1 -28 4 -13 5 -26 6
-29 2 -4 -3 -23 -7 -44 -9 -20 -1 -62 -4 -92 -7 -30 -3 -93 -8 -140 -11 -111
-7 -190 -13 -270 -19 -36 -3 -101 -8 -145 -10 -44 -3 -116 -8 -160 -11 -44 -3
-114 -7 -155 -10 -41 -3 -100 -7 -130 -10 -30 -3 -98 -7 -150 -10 -52 -3 -115
-8 -140 -10 -25 -2 -89 -6 -143 -9 -133 -6 -182 -39 -202 -135 -2 -9 -15 -65
-30 -126 -14 -60 -28 -117 -30 -125 -2 -8 -10 -42 -18 -75 -9 -33 -18 -78 -20
-100 -3 -22 -14 -76 -25 -120 -31 -124 -122 -497 -127 -522 -7 -33 -12 -51
-31 -123 -23 -87 -23 -165 -1 -188 20 -19 79 -21 222 -9 44 4 112 9 150 12
128 8 249 17 300 21 28 3 59 5 70 4 30 -2 35 -2 90 5 28 3 82 8 120 10 39 2
104 7 145 10 145 12 186 15 270 20 47 3 114 7 150 10 36 3 108 7 160 10 52 3
115 8 140 10 59 6 188 15 275 20 39 2 102 7 140 10 39 4 87 7 108 8 20 1 37 4
37 7 0 4 58 4 70 0 3 -1 10 -1 15 0 20 4 82 10 147 12 38 2 68 7 68 11 0 4 8
3 19 -2 10 -6 21 -7 25 -4 7 8 23 9 181 18 154 8 169 10 183 19 7 4 12 2 12
-4 0 -6 5 -8 12 -4 7 4 40 9 73 10 59 2 216 13 285 20 19 2 71 5 115 8 44 2
107 7 140 10 164 16 334 27 447 29 43 1 78 5 78 8 0 3 26 5 58 4 31 -1 61 1
66 4 6 2 37 6 70 7 93 4 246 13 291 18 42 5 132 12 280 22 130 8 164 12 177
20 7 5 8 3 3 -6 -6 -9 -4 -11 5 -5 7 4 45 9 84 11 39 2 98 6 131 8 33 2 98 7
145 10 131 10 172 15 208 25 35 11 37 11 51 11 18 0 28 53 17 85 -6 16 -15 33
-19 36 -4 3 -7 10 -6 15 1 5 -3 23 -10 39 -8 17 -18 41 -23 55 -6 14 -14 32
-18 40 -4 9 -11 31 -15 50 -4 19 -13 42 -21 51 -7 8 -15 24 -17 35 -1 10 -5
24 -8 29 -4 6 -9 22 -13 38 -3 15 -11 27 -17 27 -6 0 -8 4 -5 8 5 9 -8 48 -38
116 -9 21 -15 41 -12 43 3 3 -3 18 -13 32 -10 14 -16 32 -14 39 3 6 0 12 -6
12 -6 0 -11 11 -11 25 0 14 -4 25 -10 25 -5 0 -10 11 -10 24 0 14 -7 31 -15
40 -8 8 -15 23 -15 33 -1 10 -7 29 -15 43 -8 14 -14 35 -15 47 0 12 -4 23 -10
25 -5 2 -11 12 -13 23 -2 11 -9 33 -15 48 -7 16 -12 33 -12 38 0 5 -5 9 -11 9
-5 0 -7 4 -4 10 3 5 -1 22 -9 37 -9 16 -20 47 -26 71 -6 23 -15 42 -20 42 -5
0 -7 9 -5 20 2 11 0 20 -4 20 -5 0 -14 13 -21 30 -14 35 -64 75 -102 82 -15 3
-29 3 -31 1z"/>
<path d="M3204 6761 c-2 -3 -35 -6 -72 -7 -37 -1 -112 -5 -167 -9 -124 -8
-217 -13 -315 -19 -41 -2 -129 -8 -195 -11 -66 -4 -137 -8 -157 -9 -21 -1 -40
-5 -44 -8 -3 -4 -17 -3 -31 3 -13 5 -22 6 -20 1 3 -4 -20 -8 -51 -9 -176 -5
-286 -19 -318 -39 -30 -20 -54 -63 -56 -101 0 -15 -10 -64 -20 -108 -10 -44
-21 -89 -23 -100 -17 -79 -48 -203 -55 -220 -10 -22 -19 -54 -25 -83 -2 -10
-8 -36 -14 -58 -6 -21 -29 -113 -51 -204 -81 -335 -211 -875 -215 -890 -34
-150 -68 -279 -76 -295 -5 -11 -10 -32 -11 -45 0 -14 -4 -34 -9 -45 -7 -17
-123 -480 -160 -643 -6 -26 -12 -54 -14 -62 -3 -8 -16 -62 -30 -120 -13 -58
-39 -161 -55 -230 -17 -69 -33 -136 -36 -150 -3 -14 -9 -39 -15 -57 -5 -17
-12 -43 -15 -58 -2 -14 -16 -72 -30 -128 -14 -56 -27 -111 -29 -122 -3 -11 -8
-33 -12 -50 -4 -16 -7 -32 -8 -35 -14 -73 -111 -454 -120 -475 -7 -16 -15 -48
-18 -70 -2 -22 -10 -53 -16 -68 -6 -16 -11 -41 -11 -55 0 -15 -7 -38 -16 -50
-8 -12 -13 -22 -11 -22 4 0 -1 -26 -19 -102 -2 -10 -6 -26 -8 -35 -2 -10 -13
-53 -24 -96 -23 -89 -22 -101 9 -149 21 -33 122 -105 160 -115 10 -3 19 -9 19
-14 0 -5 6 -9 13 -9 7 0 23 -9 34 -19 12 -11 24 -17 27 -14 3 4 6 1 6 -6 0 -7
4 -10 9 -7 5 4 11 2 13 -2 4 -10 125 -82 138 -82 4 0 10 -3 12 -7 4 -11 85
-63 97 -63 5 0 14 -7 21 -15 7 -8 16 -13 20 -10 5 3 10 2 12 -3 5 -12 138 -92
154 -92 8 0 14 -3 14 -7 0 -7 56 -45 70 -48 3 0 25 -14 50 -30 25 -16 48 -29
51 -30 11 0 163 -98 171 -109 4 -6 8 -7 8 -2 0 5 8 2 18 -7 23 -21 116 -57
147 -57 13 0 33 9 43 20 18 19 43 104 47 160 1 14 12 66 25 115 12 50 23 95
24 100 1 6 7 24 13 40 6 17 21 71 33 120 11 50 25 104 30 120 5 17 16 59 24
95 8 36 19 83 25 105 5 22 13 55 16 74 3 19 8 37 10 41 3 5 69 279 90 373 2
10 7 27 10 37 6 18 12 43 21 90 3 14 17 70 31 125 14 55 26 105 27 110 18 86
80 335 86 350 11 25 30 91 36 130 3 17 14 64 25 105 11 41 22 83 24 93 2 10 7
27 10 37 3 10 8 29 10 42 3 13 12 52 21 87 9 36 18 73 20 84 2 11 13 56 25
101 11 45 23 92 26 106 2 14 18 79 34 145 16 66 32 129 34 140 13 55 16 75 14
77 -1 2 2 12 8 23 6 11 14 36 17 56 3 20 10 48 15 63 6 14 9 26 6 26 -2 0 1
15 6 33 7 25 55 221 95 390 2 9 6 25 8 35 3 9 25 100 50 202 25 102 56 234 70
293 14 59 30 116 35 126 6 10 15 45 20 77 6 32 13 68 16 79 29 107 76 284 79
300 4 18 20 86 30 125 3 8 9 38 16 65 11 50 67 285 96 400 8 33 16 70 19 83 2
12 6 26 9 31 3 4 8 31 11 59 4 48 3 53 -26 74 -27 20 -101 33 -115 19z"/>
<path d="M9634 6647 c-27 -17 -53 -35 -59 -42 -5 -6 -26 -23 -45 -37 -19 -15
-47 -37 -62 -50 -51 -44 -73 -63 -138 -115 -36 -28 -80 -67 -99 -85 -18 -18
-42 -37 -51 -43 -10 -5 -38 -28 -62 -51 -24 -22 -49 -43 -55 -45 -6 -2 -32
-22 -57 -44 -70 -61 -147 -124 -216 -180 -34 -27 -83 -69 -108 -92 -26 -24
-50 -43 -53 -43 -3 0 -28 -20 -55 -45 -27 -24 -52 -45 -56 -45 -4 0 -15 -8
-25 -18 -10 -10 -47 -42 -83 -72 -36 -30 -73 -61 -82 -70 -9 -8 -30 -26 -47
-40 -16 -14 -51 -44 -77 -67 -26 -24 -51 -43 -55 -43 -8 0 -78 -60 -140 -120
-20 -20 -47 -41 -60 -48 -33 -18 -89 -70 -89 -82 0 -5 -7 -10 -15 -10 -9 0
-36 -20 -62 -45 -25 -25 -48 -45 -52 -45 -6 0 -39 -27 -98 -81 -18 -16 -34
-29 -36 -29 -2 0 -26 -20 -52 -45 -27 -25 -50 -43 -52 -41 -2 2 -21 -13 -43
-33 -21 -20 -55 -49 -75 -66 -63 -52 -89 -75 -110 -95 -12 -11 -25 -20 -30
-20 -6 0 -19 -11 -29 -25 -10 -14 -23 -25 -28 -25 -5 0 -19 -11 -32 -25 -13
-14 -27 -25 -32 -25 -5 0 -26 -18 -47 -40 -20 -22 -42 -40 -47 -40 -5 0 -30
-19 -55 -42 -59 -56 -119 -107 -175 -150 -25 -19 -58 -46 -74 -61 -15 -14 -37
-29 -47 -32 -11 -4 -19 -12 -19 -18 0 -7 -17 -23 -37 -37 -21 -14 -44 -32 -53
-40 -8 -9 -72 -62 -140 -119 -116 -96 -173 -143 -239 -198 -14 -12 -37 -31
-51 -42 -14 -12 -47 -41 -75 -66 -27 -24 -53 -45 -57 -45 -4 0 -28 -20 -53
-43 -25 -24 -57 -50 -71 -58 -14 -7 -43 -29 -64 -49 -48 -45 -145 -127 -219
-186 -13 -10 -47 -39 -76 -64 -29 -25 -61 -52 -71 -60 -42 -34 -161 -132 -197
-162 -21 -18 -46 -40 -56 -48 -11 -8 -26 -31 -34 -52 -14 -34 -14 -38 8 -70
23 -33 55 -64 66 -63 12 0 79 -40 79 -48 0 -4 5 -5 10 -2 6 3 10 1 10 -5 0 -6
12 -16 28 -22 15 -7 46 -25 69 -40 23 -15 44 -28 48 -28 3 0 15 -9 27 -20 12
-11 28 -20 35 -20 7 0 13 -3 13 -8 0 -4 15 -14 33 -21 17 -8 40 -23 50 -34 9
-11 17 -17 17 -13 0 6 49 -22 60 -34 3 -4 25 -16 50 -28 25 -12 41 -22 35 -22
-5 0 6 -8 25 -19 96 -52 142 -79 159 -93 22 -18 152 -96 164 -97 4 0 14 -7 22
-15 8 -8 43 -31 77 -52 35 -21 66 -43 70 -48 5 -7 8 -7 8 -1 0 6 4 5 8 -2 4
-6 20 -14 35 -17 14 -2 31 -7 36 -10 5 -4 12 -2 16 4 3 5 15 10 26 10 10 0 32
12 48 27 16 16 44 39 62 53 18 14 48 39 66 57 19 18 51 42 71 55 20 12 48 34
62 48 14 14 41 37 60 51 19 15 44 35 55 46 11 10 29 25 41 33 22 16 81 64 170
140 29 25 86 72 128 104 42 33 76 63 76 67 0 4 8 10 18 13 9 4 39 26 66 51 27
25 52 45 55 45 3 0 29 21 56 46 89 81 185 159 185 151 0 -3 20 13 44 36 53 51
130 116 165 139 31 21 99 80 151 130 21 21 42 38 47 38 5 0 23 13 41 30 18 17
37 30 42 30 5 0 11 9 15 20 3 11 10 19 14 17 9 -2 56 32 100 72 15 14 37 32
49 40 11 8 19 18 16 23 -3 4 1 8 10 8 8 0 38 22 68 50 29 27 59 50 66 50 7 0
10 5 7 10 -3 6 -2 10 3 10 5 0 20 10 34 23 14 12 40 33 59 46 19 14 38 31 42
38 5 7 12 11 18 8 5 -4 9 0 9 7 0 8 15 22 33 32 17 11 47 35 65 54 17 19 32
32 32 28 0 -9 20 8 73 60 23 23 52 44 65 48 12 4 22 14 22 22 0 8 4 14 9 14 5
0 23 14 41 30 18 17 38 30 46 30 8 0 14 4 14 8 0 5 38 40 85 77 47 38 85 72
85 76 0 4 8 10 18 13 9 3 38 25 64 48 26 24 59 52 73 63 26 21 63 52 114 98
17 15 35 27 39 27 4 0 26 18 49 39 23 22 49 43 57 48 17 10 104 84 164 141 25
23 51 42 57 42 6 0 25 15 41 33 16 18 46 43 68 56 21 13 53 38 71 55 18 17 47
42 65 56 41 31 89 71 152 129 46 42 78 107 63 131 -3 6 -8 19 -10 30 -2 11
-13 34 -25 50 -12 16 -23 39 -25 51 -2 12 -14 41 -25 65 -12 24 -20 45 -18 47
2 1 -4 14 -13 28 -9 13 -27 49 -39 79 -13 30 -37 84 -53 120 -17 36 -31 67
-32 70 0 3 -15 36 -33 73 -18 38 -32 73 -32 78 0 5 -8 21 -17 36 -10 14 -18
32 -19 39 -2 11 -25 66 -103 239 -10 22 -35 74 -55 116 -20 42 -38 90 -40 106
-6 46 -26 71 -67 81 -32 8 -43 6 -85 -21z"/>
<path d="M2812 4052 c-22 -21 -32 -41 -37 -78 -4 -27 -11 -67 -16 -89 -5 -22
-12 -49 -14 -61 -3 -12 -12 -40 -20 -63 -12 -34 -37 -132 -60 -231 -2 -8 -8
-37 -14 -64 -7 -27 -16 -56 -21 -66 -5 -9 -12 -30 -15 -46 -4 -26 -58 -237
-135 -534 -38 -148 -39 -195 -2 -236 15 -17 41 -36 58 -42 17 -5 53 -25 80
-44 27 -19 99 -63 159 -98 61 -34 113 -68 117 -74 4 -6 8 -7 8 -3 0 4 10 -1
22 -13 12 -11 30 -20 39 -20 10 0 19 -4 21 -9 2 -5 10 -11 18 -13 8 -2 18 -7
22 -12 6 -9 75 -51 136 -83 17 -9 32 -21 32 -25 0 -5 5 -6 10 -3 6 3 10 2 10
-2 0 -12 56 -44 64 -36 3 3 6 1 6 -5 0 -7 4 -12 10 -12 5 0 29 -13 52 -29 24
-15 75 -48 113 -72 39 -24 72 -47 73 -52 2 -4 8 -5 13 -1 5 3 9 1 9 -5 0 -5 9
-13 21 -16 20 -7 119 -64 129 -76 3 -3 32 -20 65 -39 33 -19 63 -38 67 -44 5
-7 8 -7 8 -1 0 6 5 2 11 -7 5 -10 17 -18 24 -18 8 0 15 -4 15 -10 0 -5 9 -10
20 -10 11 0 20 -4 20 -8 0 -9 50 -37 61 -34 4 1 15 -8 24 -18 10 -11 24 -20
32 -20 7 0 13 -4 13 -10 0 -5 5 -10 11 -10 6 0 30 -14 55 -30 24 -17 44 -28
44 -24 0 4 7 -1 15 -12 8 -10 15 -15 15 -10 0 5 8 2 18 -6 9 -8 37 -26 62 -39
25 -13 54 -30 65 -39 34 -27 192 -120 204 -120 6 0 11 -4 11 -10 0 -5 6 -10
14 -10 8 0 16 -3 18 -8 2 -6 62 -45 163 -105 11 -7 22 -15 25 -18 3 -4 15 -9
28 -13 12 -4 22 -12 22 -17 0 -6 4 -8 9 -5 4 3 19 -3 31 -14 12 -11 31 -22 41
-25 11 -4 19 -11 19 -16 0 -6 5 -7 10 -4 6 3 10 2 10 -4 0 -5 16 -15 35 -22
19 -7 35 -17 35 -21 0 -4 7 -8 15 -8 8 0 15 -4 15 -10 0 -5 5 -10 11 -10 6 0
34 -15 62 -33 134 -86 165 -104 200 -118 15 -6 27 -15 27 -21 0 -5 4 -7 9 -4
5 4 11 2 13 -2 1 -4 32 -26 68 -47 36 -21 67 -41 70 -44 3 -3 12 -7 20 -9 8
-2 24 -12 35 -22 11 -10 30 -21 43 -25 12 -3 22 -10 22 -15 0 -4 14 -13 30
-19 17 -5 30 -15 30 -22 0 -7 3 -10 6 -6 4 3 33 -12 65 -33 32 -22 61 -40 64
-40 8 0 69 -43 73 -52 2 -4 19 -12 38 -18 19 -6 34 -16 34 -21 0 -6 5 -7 10
-4 6 3 10 3 10 -2 0 -4 25 -21 55 -38 30 -16 55 -33 55 -37 0 -4 6 -8 13 -8 7
0 23 -9 35 -20 12 -12 22 -18 22 -15 0 4 12 -3 26 -14 15 -12 33 -21 40 -21 8
0 14 -5 14 -11 0 -5 4 -8 9 -5 5 4 11 3 13 -1 4 -10 107 -73 119 -73 5 0 9 -4
9 -10 0 -5 7 -10 15 -10 8 0 15 -4 15 -10 0 -5 6 -10 13 -10 7 0 23 -9 35 -20
12 -12 22 -18 22 -14 0 4 9 -1 19 -10 11 -10 24 -15 30 -12 5 3 11 2 13 -3 3
-9 134 -94 158 -103 31 -11 147 58 215 128 11 11 63 58 115 105 52 46 106 96
120 110 14 14 32 30 42 35 9 5 43 34 76 64 33 30 88 80 122 110 34 30 89 80
122 110 33 30 67 59 74 63 8 5 32 25 53 45 21 20 73 68 114 105 71 64 107 115
107 150 0 19 -53 74 -72 74 -8 0 -34 13 -59 30 -24 16 -63 40 -86 53 -24 13
-43 27 -43 32 0 4 -9 8 -20 8 -11 0 -23 7 -26 15 -4 8 -11 12 -16 9 -6 -4 -13
-2 -17 3 -8 12 -140 93 -152 93 -5 0 -9 5 -9 10 0 6 -7 10 -15 10 -8 0 -15 4
-15 9 0 5 -8 11 -17 15 -10 3 -40 19 -68 36 -27 16 -57 33 -65 37 -8 4 -46 28
-85 53 -38 26 -83 54 -100 64 -16 9 -39 22 -50 29 -11 6 -56 34 -100 62 -44
27 -82 53 -83 57 -2 5 -8 6 -13 2 -5 -3 -9 0 -9 5 0 6 -5 11 -11 11 -6 0 -30
14 -55 31 -24 16 -58 35 -74 41 -17 5 -30 14 -30 20 0 5 -4 6 -10 3 -5 -3 -10
-2 -10 3 0 5 -16 17 -35 28 -19 10 -35 23 -35 28 0 5 -3 7 -6 4 -5 -5 -92 46
-121 72 -7 6 -13 8 -13 6 0 -3 -16 5 -35 19 -20 13 -49 30 -65 37 -17 7 -30
16 -30 20 0 5 -5 8 -11 8 -10 0 -56 28 -160 97 -19 12 -40 23 -47 23 -7 0 -12
5 -12 10 0 6 -6 10 -14 10 -8 0 -22 7 -30 16 -9 8 -16 13 -16 9 0 -3 -6 -1
-12 5 -7 6 -35 25 -63 42 -27 17 -75 47 -105 67 -30 19 -61 36 -69 38 -7 1
-23 11 -35 22 -12 12 -27 21 -33 21 -6 0 -16 7 -23 15 -7 9 -15 13 -18 10 -3
-2 -12 3 -21 13 -9 9 -22 18 -29 20 -7 1 -32 14 -55 29 -23 15 -45 26 -49 25
-5 -1 -8 2 -8 6 0 5 -18 17 -40 27 -22 10 -40 22 -40 26 0 5 -11 11 -25 15
-14 3 -25 9 -25 13 0 4 -18 16 -40 27 -22 10 -40 22 -40 27 0 4 -8 7 -18 7
-10 0 -24 9 -32 19 -7 11 -17 18 -21 15 -4 -2 -13 1 -21 8 -7 7 -29 21 -48 32
-19 10 -41 26 -47 34 -7 9 -13 12 -13 8 0 -4 -22 5 -50 21 -27 15 -50 32 -50
36 0 5 -4 5 -10 2 -5 -3 -10 -2 -10 2 0 5 -17 17 -37 28 -21 11 -40 22 -43 26
-3 3 -24 16 -47 29 -24 13 -43 28 -43 34 0 5 -3 7 -6 3 -4 -3 -31 9 -60 28
-30 19 -54 31 -54 27 0 -4 -5 1 -11 11 -5 9 -14 17 -20 17 -5 0 -22 8 -37 19
-68 47 -170 111 -178 111 -10 0 -138 83 -142 93 -2 4 -8 5 -13 1 -5 -3 -9 0
-9 7 0 7 -3 10 -6 6 -3 -3 -11 -1 -18 4 -22 19 -118 77 -147 89 -16 7 -29 16
-29 21 0 5 -7 9 -15 9 -8 0 -15 5 -15 11 0 5 -4 7 -10 4 -5 -3 -10 -1 -10 6 0
7 -3 10 -6 7 -3 -4 -33 13 -67 36 -34 23 -95 60 -134 81 -40 22 -73 43 -73 47
0 4 -4 8 -10 8 -9 0 -123 69 -147 90 -7 5 -15 10 -18 10 -9 0 -240 144 -247
154 -5 7 -8 7 -8 1 0 -6 -3 -6 -8 1 -11 16 -82 57 -82 47 0 -4 -4 -3 -8 2 -10
15 -139 95 -152 95 -5 0 -10 4 -10 9 0 11 -79 41 -107 41 -11 0 -34 -13 -51
-28z"/>
</g>
</svg>
